<?xml version="1.0" encoding="UTF-8"?>
<svg width="24px" height="24px" viewBox="0 0 24 24" version="1.1" xmlns="http://www.w3.org/2000/svg" xmlns:xlink="http://www.w3.org/1999/xlink">
    <!-- Generator: Sketch 51.2 (57519) - http://www.bohemiancoding.com/sketch -->
    <title>icon/like/w</title>
    <desc>Created with Sketch.</desc>
    <defs>
        <polygon id="path-1" points="0 0 24 0 24 22 0 22"></polygon>
    </defs>
    <g id="icon" stroke="none" stroke-width="1" fill="none" fill-rule="evenodd">
        <g id="icon/like/w">
            <g id="icon/light/like">
                <g id="Group">
                    <rect id="Rectangle" x="0" y="0" width="24" height="24"></rect>
                    <g id="Group-3" transform="translate(0.000000, 1.000000)">
                        <mask id="mask-2" fill="white">
                            <use xlink:href="#path-1"></use>
                        </mask>
                        <g id="Clip-2"></g>
                        <path d="M0,7.29150769 L0,6.70730717 C0.0124817974,6.53440478 0.023715415,6.36281225 0.0399417516,6.19121972 C0.136051591,5.17607309 0.395672977,4.21201126 0.879966715,3.32261182 C1.57021011,2.05204119 2.56625754,1.14168389 3.84813813,0.573201776 C4.60203869,0.239185787 5.39213647,0.071522859 6.20844602,0.0138887275 C7.09090909,-0.0476750038 7.93717495,0.0951004582 8.75473268,0.448764446 C9.76451009,0.886259899 10.6394841,1.53595374 11.4345746,2.31401452 C11.6218015,2.49870571 11.7878094,2.70697451 11.965051,2.9034545 C11.9962555,2.87463743 12.0037445,2.87332757 12.0074891,2.86939797 C12.1485334,2.72531264 12.2870813,2.57598784 12.430622,2.43321238 C13.2494279,1.61847534 14.1481173,0.928175631 15.1965883,0.468412446 C15.854379,0.180241789 16.5383815,0.00864926103 17.2548367,0.00471966116 C17.7179114,0.000790061291 18.1759933,0.0361564601 18.6328271,0.116058324 C19.4403994,0.260143653 20.2030372,0.535215644 20.9082588,0.972711096 C22.0016642,1.64729241 22.8129811,2.59432598 23.3484502,3.80071314 C23.7054296,4.60235151 23.902642,5.44983521 23.9638028,6.33268532 C23.9762846,6.52523571 23.9875182,6.71909597 24,6.9142661 L24,7.08454876 C23.98627,7.30984582 23.9775328,7.53645275 23.9588101,7.76043994 C23.8726857,8.73760044 23.6255461,9.66629587 23.2286249,10.5530756 C22.8317038,11.4411651 22.312461,12.2454233 21.7158311,12.9959768 C20.9132515,14.0085037 20.007073,14.9110018 19.0522155,15.7611053 C18.1335552,16.578462 17.1999168,17.3761708 16.2737674,18.1830487 C15.0605367,19.2440406 13.8760141,20.3338497 12.8500104,21.6004907 C12.7077179,21.7786325 12.5229873,21.8925909 12.3083004,21.9515349 C12.2309133,21.9724928 12.1510297,21.9842816 12.0711462,22 L11.9276056,22 C11.9051383,21.9947605 11.8814229,21.9869013 11.8577075,21.9842816 C11.5643853,21.9528448 11.3184939,21.8205483 11.1275224,21.5847723 C10.4285417,20.72288 9.66340753,19.9291009 8.84335344,19.1955756 C7.79488246,18.2577111 6.73143333,17.3394946 5.67297691,16.412109 C4.64822134,15.5148503 3.64468483,14.5940141 2.74349906,13.5565997 C1.95340129,12.6462424 1.25941336,11.6651523 0.76138964,10.5425966 C0.361972124,9.64533801 0.109839817,8.70354391 0.0349490327,7.71197487 C0.0249635948,7.57312901 0.0112336176,7.43166342 0,7.29150769" id="Fill-1" fill="#FFFFFF" mask="url(#mask-2)"></path>
                    </g>
                </g>
            </g>
        </g>
    </g>
</svg>