<?xml version="1.0" encoding="UTF-8"?>
<svg width="24px" height="24px" viewBox="0 0 24 24" version="1.1" xmlns="http://www.w3.org/2000/svg" xmlns:xlink="http://www.w3.org/1999/xlink">
    <!-- Generator: Sketch 51.2 (57519) - http://www.bohemiancoding.com/sketch -->
    <title>icon/building/g</title>
    <desc>Created with Sketch.</desc>
    <defs></defs>
    <g id="icon" stroke="none" stroke-width="1" fill="none" fill-rule="evenodd">
        <g id="icon/building/g">
            <rect id="Rectangle-3" x="0" y="0" width="24" height="24"></rect>
            <circle id="Oval" fill="#3BA99C" cx="12" cy="12" r="12"></circle>
            <path d="M18,19 L18.5,19 C18.7761424,19 19,19.2238576 19,19.5 C19,19.7761424 18.7761424,20 18.5,20 L5.5,20 C5.22385763,20 5,19.7761424 5,19.5 C5,19.2238576 5.22385763,19 5.5,19 L6,19 L6,5 C6,4.44771525 6.44771525,4 7,4 L17,4 C17.5522847,4 18,4.44771525 18,5 L18,19 Z M9.5,6 C9.22385763,6 9,6.22385763 9,6.5 L9,7.5 C9,7.77614237 9.22385763,8 9.5,8 L10.5,8 C10.7761424,8 11,7.77614237 11,7.5 L11,6.5 C11,6.22385763 10.7761424,6 10.5,6 L9.5,6 Z M9.5,9 C9.22385763,9 9,9.22385763 9,9.5 L9,10.5 C9,10.7761424 9.22385763,11 9.5,11 L10.5,11 C10.7761424,11 11,10.7761424 11,10.5 L11,9.5 C11,9.22385763 10.7761424,9 10.5,9 L9.5,9 Z M9.5,12 C9.22385763,12 9,12.2238576 9,12.5 L9,13.5 C9,13.7761424 9.22385763,14 9.5,14 L10.5,14 C10.7761424,14 11,13.7761424 11,13.5 L11,12.5 C11,12.2238576 10.7761424,12 10.5,12 L9.5,12 Z M13.5,6 C13.2238576,6 13,6.22385763 13,6.5 L13,7.5 C13,7.77614237 13.2238576,8 13.5,8 L14.5,8 C14.7761424,8 15,7.77614237 15,7.5 L15,6.5 C15,6.22385763 14.7761424,6 14.5,6 L13.5,6 Z M13.5,9 C13.2238576,9 13,9.22385763 13,9.5 L13,10.5 C13,10.7761424 13.2238576,11 13.5,11 L14.5,11 C14.7761424,11 15,10.7761424 15,10.5 L15,9.5 C15,9.22385763 14.7761424,9 14.5,9 L13.5,9 Z M13.5,12 C13.2238576,12 13,12.2238576 13,12.5 L13,13.5 C13,13.7761424 13.2238576,14 13.5,14 L14.5,14 C14.7761424,14 15,13.7761424 15,13.5 L15,12.5 C15,12.2238576 14.7761424,12 14.5,12 L13.5,12 Z M11.5,16 C11.2238576,16 11,16.2238576 11,16.5 L11,18.5 C11,18.7761424 11.2238576,19 11.5,19 L12.5,19 C12.7761424,19 13,18.7761424 13,18.5 L13,16.5 C13,16.2238576 12.7761424,16 12.5,16 L11.5,16 Z" id="Combined-Shape" fill="#FFFFFF"></path>
        </g>
    </g>
</svg>