<?xml version="1.0" encoding="UTF-8"?>
<svg width="36px" height="36px" viewBox="0 0 36 36" version="1.1" xmlns="http://www.w3.org/2000/svg" xmlns:xlink="http://www.w3.org/1999/xlink">
    <!-- Generator: Sketch 51.2 (57519) - http://www.bohemiancoding.com/sketch -->
    <title>icon/building/g</title>
    <desc>Created with Sketch.</desc>
    <defs></defs>
    <g id="icon" stroke="none" stroke-width="1" fill="none" fill-rule="evenodd">
        <g id="icon/building/g">
            <rect id="Rectangle-3" x="0" y="0" width="36" height="36"></rect>
            <circle id="Oval" fill="#3BA99C" cx="18" cy="18" r="18"></circle>
            <path d="M24,25 L24.5,25 C24.7761424,25 25,25.2238576 25,25.5 C25,25.7761424 24.7761424,26 24.5,26 L11.5,26 C11.2238576,26 11,25.7761424 11,25.5 C11,25.2238576 11.2238576,25 11.5,25 L12,25 L12,10.5 C12,10.2238576 12.2238576,10 12.5,10 L23.5,10 C23.7761424,10 24,10.2238576 24,10.5 L24,25 Z M15.5,12 C15.2238576,12 15,12.2238576 15,12.5 L15,13.5 C15,13.7761424 15.2238576,14 15.5,14 L16.5,14 C16.7761424,14 17,13.7761424 17,13.5 L17,12.5 C17,12.2238576 16.7761424,12 16.5,12 L15.5,12 Z M15.5,15 C15.2238576,15 15,15.2238576 15,15.5 L15,16.5 C15,16.7761424 15.2238576,17 15.5,17 L16.5,17 C16.7761424,17 17,16.7761424 17,16.5 L17,15.5 C17,15.2238576 16.7761424,15 16.5,15 L15.5,15 Z M15.5,18 C15.2238576,18 15,18.2238576 15,18.5 L15,19.5 C15,19.7761424 15.2238576,20 15.5,20 L16.5,20 C16.7761424,20 17,19.7761424 17,19.5 L17,18.5 C17,18.2238576 16.7761424,18 16.5,18 L15.5,18 Z M19.5,12 C19.2238576,12 19,12.2238576 19,12.5 L19,13.5 C19,13.7761424 19.2238576,14 19.5,14 L20.5,14 C20.7761424,14 21,13.7761424 21,13.5 L21,12.5 C21,12.2238576 20.7761424,12 20.5,12 L19.5,12 Z M19.5,15 C19.2238576,15 19,15.2238576 19,15.5 L19,16.5 C19,16.7761424 19.2238576,17 19.5,17 L20.5,17 C20.7761424,17 21,16.7761424 21,16.5 L21,15.5 C21,15.2238576 20.7761424,15 20.5,15 L19.5,15 Z M19.5,18 C19.2238576,18 19,18.2238576 19,18.5 L19,19.5 C19,19.7761424 19.2238576,20 19.5,20 L20.5,20 C20.7761424,20 21,19.7761424 21,19.5 L21,18.5 C21,18.2238576 20.7761424,18 20.5,18 L19.5,18 Z M17.5,22 C17.2238576,22 17,22.2238576 17,22.5 L17,24.5 C17,24.7761424 17.2238576,25 17.5,25 L18.5,25 C18.7761424,25 19,24.7761424 19,24.5 L19,22.5 C19,22.2238576 18.7761424,22 18.5,22 L17.5,22 Z" id="Combined-Shape" fill="#FFFFFF"></path>
        </g>
    </g>
</svg>