<?xml version="1.0" encoding="UTF-8"?>
<svg width="24px" height="24px" viewBox="0 0 24 24" version="1.1" xmlns="http://www.w3.org/2000/svg" xmlns:xlink="http://www.w3.org/1999/xlink">
    <!-- Generator: Sketch 51.2 (57519) - http://www.bohemiancoding.com/sketch -->
    <title>icon/project/w</title>
    <desc>Created with Sketch.</desc>
    <defs>
        <path d="M18,12.0224215 C17.835319,12.0075813 17.6685448,12 17.5,12 C14.4624339,12 12,14.4624339 12,17.5 C12,18.4002234 12.2162787,19.2499322 12.5997096,20 L2,20 C0.8954305,20 1.3527075e-16,19.1045695 0,18 L0,2 C-1.3527075e-16,0.8954305 0.8954305,2.02906125e-16 2,0 L16,0 C17.1045695,-2.02906125e-16 18,0.8954305 18,2 L18,12.0224215 Z" id="path-1"></path>
    </defs>
    <g id="icon" stroke="none" stroke-width="1" fill="none" fill-rule="evenodd">
        <g id="icon/project/w">
            <g id="icon/light/project">
                <g id="Group">
                    <rect id="Rectangle" x="0" y="0" width="24" height="24"></rect>
                    <g id="Rectangle-8" transform="translate(1.000000, 1.000000)">
                        <mask id="mask-2" fill="white">
                            <use xlink:href="#path-1"></use>
                        </mask>
                        <g id="Mask"></g>
                        <rect id="Rectangle-3-Copy" stroke="#FFFFFF" mask="url(#mask-2)" x="7.5" y="12.5" width="6" height="1"></rect>
                        <rect stroke="#FFFFFF" stroke-width="2" mask="url(#mask-2)" x="1" y="1" width="16" height="18" rx="2"></rect>
                    </g>
                    <rect id="Rectangle-7" fill="#FFFFFF" x="5" y="5" width="2" height="2"></rect>
                    <rect id="Rectangle-7-Copy" fill="#FFFFFF" x="8" y="5" width="7" height="2"></rect>
                    <rect id="Rectangle-2" fill="#FFFFFF" x="5" y="9" width="2" height="2"></rect>
                    <rect id="Rectangle-2-Copy" fill="#FFFFFF" x="8" y="9" width="7" height="2"></rect>
                    <rect id="Rectangle-3" fill="#FFFFFF" x="5" y="13" width="2" height="2"></rect>
                    <path d="M18,14.0274644 L18,19 L22.9725356,19 C22.7238135,21.2499752 20.8162768,23 18.5,23 C16.0147186,23 14,20.9852814 14,18.5 C14,16.1837232 15.7500248,14.2761865 18,14.0274644 Z" id="Combined-Shape" fill="#FFFFFF"></path>
                    <path d="M18.5,13.9832608 C18.5273578,13.9827704 18.5547752,13.9825242 18.5822501,13.9825242 C19.6811026,13.9825242 20.6879641,14.3763844 21.469365,15.030635 L18.5,18 L18.5,13.9832608 Z" id="Combined-Shape" fill="#FFFFFF"></path>
                    <path d="M19.3705576,14.9891493 C19.3979154,14.9886589 19.4253328,14.9884127 19.4528077,14.9884127 C20.5516602,14.9884127 21.5585217,15.3822729 22.3399226,16.0365235 L19.3705576,19.0058885 L19.3705576,14.9891493 Z" id="Combined-Shape" fill="#FFFFFF" transform="translate(20.855240, 16.997151) scale(1, -1) rotate(-270.000000) translate(-20.855240, -16.997151) "></path>
                </g>
            </g>
        </g>
    </g>
</svg>