<?xml version="1.0" encoding="UTF-8"?>
<svg width="24px" height="24px" viewBox="0 0 24 24" version="1.1" xmlns="http://www.w3.org/2000/svg" xmlns:xlink="http://www.w3.org/1999/xlink">
    <!-- Generator: Sketch 51.2 (57519) - http://www.bohemiancoding.com/sketch -->
    <title>icon/okr/y</title>
    <desc>Created with Sketch.</desc>
    <defs>
        <polygon id="path-1" points="0.2878 0.003 10.9718 0.003 10.9718 10.7099 0.2878 10.7099"></polygon>
    </defs>
    <g id="icon" stroke="none" stroke-width="1" fill="none" fill-rule="evenodd">
        <g id="icon/okr/y">
            <g id="icon/color/okr">
                <g id="Group">
                    <rect id="Rectangle" x="0" y="0" width="24" height="24"></rect>
                    <g id="Group-12" transform="translate(2.000000, 1.000000)">
                        <path d="M16.1489,3.3477 C15.8919,3.7647 15.3399,3.9497 15.3049,4.5137 C10.9459,1.4677 5.4609,3.1647 3.0139,6.7567 C0.6399,10.2417 1.0739,15.0517 4.1039,17.9927 C7.2349,21.0337 11.9989,21.3567 15.4929,18.7927 C18.8919,16.2997 20.4549,11.0557 17.4719,6.6837 C18.0449,6.6677 18.2179,6.1077 18.6239,5.8637 C20.9539,8.8357 21.5699,14.3687 18.0029,18.4537 C14.3259,22.6647 8.0189,23.1907 3.7579,19.6637 C-0.5441,16.1027 -1.2511,9.8137 2.1489,5.4557 C5.6249,0.9987 11.8339,0.2637 16.1489,3.3477" id="Fill-1" fill="#F8F684"></path>
                        <path d="M14.5015,8.8125 C14.8385,8.4545 15.1715,8.0995 15.5065,7.7415 C17.2835,9.8965 17.5635,13.7365 14.9785,16.3705 C12.4465,18.9515 8.3415,18.9965 5.7125,16.5415 C3.2165,14.2105 2.9515,10.1185 5.1565,7.5155 C7.6135,4.6145 11.6385,4.4425 14.2645,6.4785 C13.9215,6.7995 13.5875,7.1215 13.2385,7.4275 C13.2005,7.4605 13.0645,7.4145 12.9935,7.3715 C11.8845,6.6905 10.6825,6.4275 9.4075,6.6665 C7.4375,7.0355 6.0675,8.1755 5.4095,10.0715 C4.7705,11.9165 5.1105,13.6365 6.3945,15.0975 C9.0435,18.1125 13.8235,17.1545 15.1355,13.3595 C15.6505,11.8705 15.4565,10.4305 14.6625,9.0705 C14.6145,8.9885 14.5625,8.9085 14.5015,8.8125" id="Fill-3" fill="#F8F684"></path>
                        <path d="M11.9204,8.6773 C11.5404,9.0333 11.1884,9.3703 10.8254,9.6963 C10.7744,9.7413 10.6684,9.7493 10.5924,9.7393 C9.4734,9.5863 8.4674,10.2933 8.2814,11.3703 C8.0874,12.4933 8.7894,13.4963 9.9254,13.7193 C10.9544,13.9203 11.9964,13.2193 12.2304,12.1553 C12.2744,11.9523 12.2934,11.7293 12.2554,11.5283 C12.2124,11.2843 12.3014,11.1363 12.4604,10.9793 C12.7514,10.6903 13.0264,10.3843 13.3134,10.0813 C14.1544,11.4553 13.7624,13.3963 12.4484,14.4523 C11.0824,15.5493 9.1084,15.4603 7.8444,14.2463 C6.5904,13.0393 6.4164,11.0683 7.4424,9.6783 C8.4874,8.2633 10.3844,7.8263 11.9204,8.6773" id="Fill-5" fill="#F8F684"></path>
                        <g id="Group-9" transform="translate(10.000000, 0.997100)">
                            <mask id="mask-2" fill="white">
                                <use xlink:href="#path-1"></use>
                            </mask>
                            <g id="Clip-8"></g>
                            <path d="M9.1558,0.0029 C9.1898,0.6199 9.2198,1.1619 9.2518,1.7389 C9.8128,1.7729 10.3688,1.8059 10.9718,1.8429 C10.8768,1.9469 10.8228,2.0119 10.7628,2.0709 C9.7728,3.0619 8.7858,4.0559 7.7868,5.0369 C7.6868,5.1349 7.5088,5.1549 7.3658,5.2109 C7.3588,5.2129 7.3468,5.2119 7.3378,5.2099 C6.6348,5.0409 6.1668,5.3359 5.6988,5.8659 C4.5248,7.1959 3.2808,8.4629 2.0708,9.7619 C1.9358,9.9069 1.8058,10.0009 1.6018,9.9509 C1.3738,9.8959 1.2108,9.9839 1.0478,10.1539 C0.8498,10.3609 0.6088,10.5259 0.3858,10.7099 C0.3538,10.6769 0.3208,10.6449 0.2878,10.6119 C0.4768,10.3839 0.6498,10.1409 0.8598,9.9349 C1.0108,9.7859 1.0908,9.6369 1.0488,9.4309 C1.0018,9.1989 1.0998,9.0449 1.2698,8.8869 C2.7248,7.5359 4.1688,6.1709 5.6218,4.8179 C5.7768,4.6749 5.8778,4.5349 5.8228,4.3249 C5.6388,3.6279 5.9378,3.1569 6.4468,2.6909 C7.3658,1.8509 8.2188,0.9399 9.1558,0.0029" id="Fill-7" fill="#F8F684" mask="url(#mask-2)"></path>
                        </g>
                        <path d="M10.2373,10.8721 C10.1123,11.0951 9.9973,11.2921 9.8913,11.4951 C9.7873,11.6921 9.7933,11.8871 9.9613,12.0481 C10.1183,12.1991 10.3033,12.2091 10.4913,12.1081 C10.7003,11.9971 10.9063,11.8781 11.1163,11.7611 C11.1183,12.2471 10.7573,12.6061 10.2703,12.6101 C9.7783,12.6131 9.3853,12.2321 9.3803,11.7471 C9.3753,11.2571 9.7243,10.8901 10.2373,10.8721" id="Fill-10" fill="#F8F684"></path>
                    </g>
                </g>
            </g>
        </g>
    </g>
</svg>