<?xml version="1.0" encoding="UTF-8"?>
<svg width="24px" height="24px" viewBox="0 0 24 24" version="1.1" xmlns="http://www.w3.org/2000/svg" xmlns:xlink="http://www.w3.org/1999/xlink">
    <!-- Generator: Sketch 51.2 (57519) - http://www.bohemiancoding.com/sketch -->
    <title>icon/calendar/y</title>
    <desc>Created with Sketch.</desc>
    <defs>
        <polygon id="path-1" points="0 0 22 0 22 22 0 22"></polygon>
    </defs>
    <g id="icon" stroke="none" stroke-width="1" fill="none" fill-rule="evenodd">
        <g id="icon/calendar/y">
            <g id="icon/color/calendar">
                <g id="Group">
                    <rect id="Rectangle" x="0" y="0" width="24" height="24"></rect>
                    <g id="Group-3" transform="translate(1.000000, 1.000000)">
                        <mask id="mask-2" fill="white">
                            <use xlink:href="#path-1"></use>
                        </mask>
                        <g id="Clip-2"></g>
                        <path d="M16.9417406,3.74746947 C16.9417406,3.3022734 16.9220112,2.8560609 16.9472209,2.41188127 C16.9757188,1.88842014 16.8573429,1.56824488 16.1712006,1.57129417 C15.539862,1.57434346 15.2165202,1.73697216 15.2351535,2.37122409 C15.2614592,3.28702696 15.2680357,4.20587912 15.2329613,5.12269841 C15.2099438,5.77016393 15.5486306,5.90331618 16.1690084,5.91246404 C16.8518625,5.9216119 16.9801031,5.6136338 16.948317,5.0840741 C16.9198191,4.63989446 16.9417406,4.19266554 16.9417406,3.74746947 Z M5.10962259,3.7312066 C5.10962259,4.25670059 5.12496763,4.783211 5.10414223,5.30768856 C5.08112467,5.90738189 5.50749743,5.8972176 5.95798381,5.89925046 C6.41504663,5.90331618 6.82278613,5.88095473 6.81620969,5.30057356 C6.80524895,4.27601274 6.8030568,3.2504355 6.81840184,2.22689112 C6.82497828,1.61195135 6.40518197,1.58450775 5.90866048,1.58044204 C5.40994685,1.57637632 5.07893253,1.68513426 5.10304615,2.23400613 C5.12715978,2.73205652 5.10852652,3.23213977 5.10962259,3.7312066 Z M1.72494633,11.3645912 L5.45598195,11.3645912 L5.45598195,7.92905992 L1.72494633,7.92905992 L1.72494633,11.3645912 Z M16.5712676,11.3564598 L20.2858621,11.3564598 L20.2858621,7.90873134 L16.5712676,7.90873134 L16.5712676,11.3564598 Z M1.75015603,20.3935334 L5.46036625,20.3935334 L5.46036625,16.9447885 L1.75015603,16.9447885 L1.75015603,20.3935334 Z M16.5657872,20.4057305 L20.2902464,20.4057305 L20.2902464,16.9529199 L16.5657872,16.9529199 L16.5657872,20.4057305 Z M16.5855165,16.09607 L20.2727092,16.09607 L20.2727092,12.2041619 L16.5855165,12.2041619 L16.5855165,16.09607 Z M1.71617774,16.103185 L5.44063692,16.103185 L5.44063692,12.2244905 L1.71617774,12.2244905 L1.71617774,16.103185 Z M11.4580827,11.3757719 L15.6538537,11.3757719 L15.6538537,7.93210921 L11.4580827,7.93210921 L11.4580827,11.3757719 Z M6.38983693,11.390002 L10.5746472,11.390002 L10.5746472,7.9178792 L6.38983693,7.9178792 L6.38983693,11.390002 Z M6.3701076,20.3793034 L10.5669746,20.3793034 L10.5669746,16.9254763 L6.3701076,16.9254763 L6.3701076,20.3793034 Z M11.4997335,20.4047141 L15.6681027,20.4047141 L15.6681027,16.9447885 L11.4997335,16.9447885 L11.4997335,20.4047141 Z M11.4832924,16.0930207 L15.6472773,16.0930207 L15.6472773,12.2173755 L11.4832924,12.2173755 L11.4832924,16.0930207 Z M6.37778012,16.1103 L10.5603982,16.1103 L10.5603982,12.2427862 L6.37778012,12.2427862 L6.37778012,16.1103 Z M3.37563365,3.16505544 C3.58279162,0.761199959 4.09685029,0.0537651133 5.59189512,0.00700936193 C7.72485497,-0.0590585476 8.06683003,0.294658876 8.56663974,3.12134897 L13.5833701,3.12134897 C13.6995539,2.15980678 13.3345613,0.948222965 14.5380505,0.391219666 C15.1584283,0.104586582 15.9476015,0.0253050907 16.6567613,0.0324200963 C17.9468403,0.0456336782 18.3775974,0.751035666 18.6932667,3.16505544 C19.1470413,3.16505544 19.6183531,3.16098972 20.0907609,3.16505544 C21.3216519,3.17623616 21.9814884,3.76983091 21.9913531,4.9214454 C22.0077942,6.52943667 21.9957374,8.13844438 21.9957374,9.74643565 C21.9957374,13.1728191 21.9979295,16.6012354 21.9935453,20.0276188 C21.9935453,21.4170778 21.3643988,21.9984754 19.8759304,21.9984754 C13.9911096,22.0005082 8.10628869,22.0005082 2.22146782,21.9984754 C0.576260863,21.9984754 0.00191812936,21.4729814 0.00082205544,19.9696823 C-0.00027401848,15.0399998 -0.00027401848,10.1103174 0.00082205544,5.18063489 C0.00191812936,3.72307516 0.597086268,3.16810472 2.14912694,3.16505544 C2.54042533,3.16505544 2.93281979,3.16505544 3.37563365,3.16505544 Z" id="Fill-1" fill="#F8F684" mask="url(#mask-2)"></path>
                    </g>
                </g>
            </g>
        </g>
    </g>
</svg>