<?xml version="1.0" encoding="UTF-8"?>
<svg width="24px" height="24px" viewBox="0 0 24 24" version="1.1" xmlns="http://www.w3.org/2000/svg" xmlns:xlink="http://www.w3.org/1999/xlink">
    <!-- Generator: Sketch 51.2 (57519) - http://www.bohemiancoding.com/sketch -->
    <title>icon/home/y</title>
    <desc>Created with Sketch.</desc>
    <defs></defs>
    <g id="icon" stroke="none" stroke-width="1" fill="none" fill-rule="evenodd">
        <g id="icon/home/y">
            <g id="icon/color/home">
                <g id="Group">
                    <rect id="background" x="0" y="0" width="24" height="24"></rect>
                    <path d="M23.8279187,11.12225 L20.9999187,8.66225 L20.9999187,3.49925 C20.9999187,3.22325 20.7759187,2.99925 20.4999187,2.99925 L17.4999187,2.99925 C17.2239187,2.99925 16.9999187,3.22325 16.9999187,3.49925 L16.9999187,5.18525 L12.3279187,1.12225 C12.1399187,0.95925 11.8599187,0.95925 11.6719187,1.12225 L0.171918709,11.12225 C-0.0260812906,11.29425 -0.0570812906,11.58925 0.0999187094,11.79925 L1.59991871,13.79925 C1.68391871,13.91125 1.81091871,13.98325 1.95191871,13.99725 C2.09091871,14.01225 2.22991871,13.96525 2.33391871,13.87125 L11.9999187,5.17225 L21.6649187,13.87125 C21.7579187,13.95425 21.8769187,13.99925 21.9999187,13.99925 C22.0159187,13.99925 22.0319187,13.99825 22.0479187,13.99725 C22.1879187,13.98325 22.3159187,13.91125 22.3999187,13.79925 L23.8999187,11.79925 C24.0569187,11.58925 24.0259187,11.29425 23.8279187,11.12225" id="Fill-586" fill="#F8F684"></path>
                    <path d="M12.3342187,6.81855 C12.1442187,6.64755 11.8552187,6.64755 11.6652187,6.81855 L3.16521871,14.46755 C3.06021871,14.56355 3.00021871,14.69855 3.00021871,14.83955 L3.00021871,22.49955 C3.00021871,22.77555 3.22321871,22.99955 3.50021871,22.99955 L8.50021871,22.99955 C8.77621871,22.99955 9.00021871,22.77555 9.00021871,22.49955 L9.00021871,13.99955 L15.0002187,13.99955 L15.0002187,22.49955 C15.0002187,22.77555 15.2232187,22.99955 15.5002187,22.99955 L20.5002187,22.99955 C20.7762187,22.99955 21.0002187,22.77555 21.0002187,22.49955 L21.0002187,14.83955 C21.0002187,14.69855 20.9392187,14.56355 20.8342187,14.46755 L12.3342187,6.81855 Z" id="Fill-588" fill="#F8F684"></path>
                </g>
            </g>
        </g>
    </g>
</svg>