<?xml version="1.0" encoding="UTF-8"?>
<svg width="24px" height="24px" viewBox="0 0 24 24" version="1.1" xmlns="http://www.w3.org/2000/svg" xmlns:xlink="http://www.w3.org/1999/xlink">
    <!-- Generator: Sketch 51.2 (57519) - http://www.bohemiancoding.com/sketch -->
    <title>icon/user/green</title>
    <desc>Created with Sketch.</desc>
    <defs></defs>
    <g id="icon" stroke="none" stroke-width="1" fill="none" fill-rule="evenodd">
        <g id="icon-user-green">
            <g id="icon/color/user">
                <g id="Group">
                    <rect id="Rectangle-2" x="0" y="0" width="24" height="24"></rect>
                    <path d="M19,17.562 C19,18.354 18.359,18.999 17.571,18.999 L6.429,18.999 C5.641,18.999 5,18.354 5,17.562 L5,17.104 C5,15.975 5.623,14.951 6.625,14.431 C7.884,13.778 9.839,13 12,13 C14.161,13 16.116,13.778 17.375,14.431 C18.377,14.951 19,15.975 19,17.104 L19,17.562 Z M12,4.999 C13.93,4.999 15.5,6.57 15.5,8.499 C15.5,10.429 13.93,12 12,12 C10.07,12 8.5,10.429 8.5,8.499 C8.5,6.57 10.07,4.999 12,4.999 L12,4.999 Z M12,0 C5.383,0 0,5.383 0,12 C0,18.616 5.383,23.999 12,23.999 C18.617,23.999 24,18.616 24,12 C24,5.383 18.617,0 12,0 L12,0 Z" id="Fill-151" fill="#3BA99C"></path>
                </g>
            </g>
        </g>
    </g>
</svg>